<svg width="16" height="16" viewBox="0 0 16 16" fill="none" xmlns="http://www.w3.org/2000/svg">
<g clip-path="url(#clip0_2_167)">
<path d="M12.6667 2C13.1768 1.99997 13.6677 2.19488 14.0389 2.54486C14.41 2.89483 14.6334 3.3734 14.6633 3.88267L14.6667 4V12C14.6667 12.5101 14.4718 13.001 14.1218 13.3722C13.7719 13.7433 13.2933 13.9667 12.784 13.9967L12.6667 14H5.40535C5.08795 13.9999 4.77512 13.9243 4.49273 13.7794C4.21034 13.6345 3.9665 13.4245 3.78135 13.1667L3.70935 13.06L0.989346 8.70667C0.867395 8.51165 0.797965 8.28841 0.787802 8.05863C0.777638 7.82885 0.827088 7.60035 0.931346 7.39533L0.98868 7.29333L3.70935 2.94C3.87757 2.6708 4.10745 2.4455 4.37999 2.28274C4.65253 2.11998 4.9599 2.02444 5.27668 2.004L5.40535 2H12.6667ZM12.6667 3.33333H5.40535C5.30675 3.33337 5.20939 3.35527 5.12028 3.39746C5.03117 3.43965 4.95252 3.50109 4.89001 3.57733L4.84001 3.64667L2.12001 8L4.84001 12.3533C4.89226 12.437 4.96241 12.508 5.04541 12.5613C5.12842 12.6145 5.2222 12.6487 5.32001 12.6613L5.40535 12.6667H12.6667C12.83 12.6666 12.9876 12.6067 13.1096 12.4982C13.2316 12.3897 13.3096 12.2402 13.3287 12.078L13.3333 12V4C13.3333 3.83671 13.2734 3.67911 13.1649 3.55709C13.0564 3.43506 12.9068 3.3571 12.7447 3.338L12.6667 3.33333ZM7.25268 5.64267L8.66601 7.05733L10.0807 5.64267C10.1426 5.58077 10.2161 5.53168 10.2971 5.4982C10.378 5.46472 10.4647 5.4475 10.5522 5.44753C10.6398 5.44756 10.7265 5.46484 10.8074 5.49838C10.8883 5.53192 10.9618 5.58106 11.0237 5.643C11.0856 5.70494 11.1347 5.77847 11.1681 5.85938C11.2016 5.94029 11.2188 6.027 11.2188 6.11457C11.2188 6.20214 11.2015 6.28884 11.168 6.36973C11.1344 6.45061 11.0853 6.5241 11.0233 6.586L9.61001 8L11.0233 9.414C11.1484 9.53901 11.2188 9.70858 11.2188 9.88543C11.2189 10.0623 11.1487 10.2319 11.0237 10.357C10.8987 10.4821 10.7291 10.5524 10.5522 10.5525C10.3754 10.5525 10.2058 10.4823 10.0807 10.3573L8.66668 8.94267L7.25268 10.3573C7.12759 10.4824 6.95792 10.5527 6.78101 10.5527C6.6041 10.5527 6.43444 10.4824 6.30935 10.3573C6.18425 10.2322 6.11398 10.0626 6.11398 9.88567C6.11398 9.70876 6.18425 9.53909 6.30935 9.414L7.72401 8L6.30935 6.586C6.18425 6.46091 6.11398 6.29124 6.11398 6.11433C6.11398 5.93742 6.18425 5.76776 6.30935 5.64267C6.43444 5.51757 6.6041 5.4473 6.78101 5.4473C6.95792 5.4473 7.12759 5.51757 7.25268 5.64267Z" fill="white"/>
</g>
<defs>
<clipPath id="clip0_2_167">
<rect width="16" height="16" fill="white"/>
</clipPath>
</defs>
</svg>
