<svg width="16" height="16" viewBox="0 0 16 16" fill="none" xmlns="http://www.w3.org/2000/svg">
<g clip-path="url(#clip0_2_214)">
<path fill-rule="evenodd" clip-rule="evenodd" d="M8 9.41466L11.5353 12.95C11.7229 13.1376 11.9774 13.243 12.2427 13.243C12.508 13.243 12.7624 13.1376 12.95 12.95C13.1376 12.7624 13.243 12.508 13.243 12.2427C13.243 11.9774 13.1376 11.7229 12.95 11.5353L9.41333 8L12.9493 4.46466C13.0422 4.37178 13.1158 4.26151 13.166 4.14016C13.2163 4.01881 13.2421 3.88876 13.2421 3.75743C13.2421 3.6261 13.2162 3.49605 13.1659 3.37473C13.1156 3.25341 13.0419 3.14318 12.949 3.05033C12.8561 2.95749 12.7458 2.88385 12.6245 2.83362C12.5031 2.78339 12.3731 2.75755 12.2418 2.75758C12.1104 2.75761 11.9804 2.78351 11.8591 2.8338C11.7377 2.88408 11.6275 2.95778 11.5347 3.05066L8 6.586L4.46467 3.05066C4.37247 2.95511 4.26216 2.87888 4.14018 2.82641C4.0182 2.77395 3.88699 2.7463 3.75421 2.74508C3.62144 2.74387 3.48974 2.76911 3.36683 2.81933C3.24391 2.86955 3.13222 2.94375 3.03828 3.0376C2.94435 3.13145 2.87004 3.24307 2.8197 3.36594C2.76936 3.48881 2.744 3.62048 2.74509 3.75326C2.74618 3.88604 2.7737 4.01727 2.82605 4.1393C2.87841 4.26132 2.95453 4.37171 3.05 4.464L6.58667 8L3.05067 11.536C2.9552 11.6283 2.87907 11.7387 2.82672 11.8607C2.77437 11.9827 2.74685 12.114 2.74576 12.2467C2.74467 12.3795 2.77003 12.5112 2.82037 12.6341C2.87071 12.7569 2.94501 12.8685 3.03895 12.9624C3.13289 13.0562 3.24457 13.1304 3.36749 13.1807C3.49041 13.2309 3.6221 13.2561 3.75488 13.2549C3.88766 13.2537 4.01886 13.226 4.14084 13.1736C4.26282 13.1211 4.37313 13.0449 4.46533 12.9493L8 9.41466Z" fill="white"/>
</g>
<defs>
<clipPath id="clip0_2_214">
<rect width="16" height="16" fill="white"/>
</clipPath>
</defs>
</svg>
