<svg width="16" height="16" viewBox="0 0 16 16" fill="none" xmlns="http://www.w3.org/2000/svg">
<g clip-path="url(#clip0_2_204)">
<path d="M7.00002 13.3333C7.00002 13.5985 7.10538 13.8529 7.29291 14.0404C7.48045 14.228 7.7348 14.3333 8.00002 14.3333C8.26524 14.3333 8.51959 14.228 8.70713 14.0404C8.89466 13.8529 9.00002 13.5985 9.00002 13.3333V9H13.3334C13.5986 9 13.8529 8.89464 14.0405 8.70711C14.228 8.51957 14.3334 8.26522 14.3334 8C14.3334 7.73478 14.228 7.48043 14.0405 7.29289C13.8529 7.10536 13.5986 7 13.3334 7H9.00002V2.66667C9.00002 2.40145 8.89466 2.1471 8.70713 1.95956C8.51959 1.77202 8.26524 1.66667 8.00002 1.66667C7.7348 1.66667 7.48045 1.77202 7.29291 1.95956C7.10538 2.1471 7.00002 2.40145 7.00002 2.66667V7H2.66669C2.40147 7 2.14712 7.10536 1.95958 7.29289C1.77204 7.48043 1.66669 7.73478 1.66669 8C1.66669 8.26522 1.77204 8.51957 1.95958 8.70711C2.14712 8.89464 2.40147 9 2.66669 9H7.00002V13.3333Z" fill="white"/>
</g>
<defs>
<clipPath id="clip0_2_204">
<rect width="16" height="16" fill="white"/>
</clipPath>
</defs>
</svg>
